<?xml version="1.0" standalone="no"?>
<!DOCTYPE svg PUBLIC "-//W3C//DTD SVG 20010904//EN"
 "http://www.w3.org/TR/2001/REC-SVG-20010904/DTD/svg10.dtd">
<svg version="1.0" xmlns="http://www.w3.org/2000/svg"
 width="32.000000pt" height="32.000000pt" viewBox="0 0 32.000000 32.000000"
 preserveAspectRatio="xMidYMid meet">

<g transform="translate(0.000000,32.000000) scale(0.100000,-0.100000)"
fill="#000000" stroke="none">
<path d="M119 269 c-9 -17 -7 -23 10 -35 11 -8 32 -35 47 -59 14 -25 32 -45
40 -45 30 0 27 34 -6 97 -37 68 -68 83 -91 42z"/>
<path d="M88 203 c-31 -37 -71 -120 -65 -136 14 -38 42 -17 81 59 32 62 36 78
25 85 -20 12 -24 11 -41 -8z"/>
<path d="M246 125 c-4 -11 -20 -15 -56 -15 -58 0 -90 -13 -90 -36 0 -12 6 -15
23 -11 12 4 50 0 85 -7 76 -15 92 -5 72 44 -15 37 -26 45 -34 25z"/>
</g>
</svg>
