<?xml version="1.0" standalone="no"?>
<!DOCTYPE svg PUBLIC "-//W3C//DTD SVG 20010904//EN"
 "http://www.w3.org/TR/2001/REC-SVG-20010904/DTD/svg10.dtd">
<svg version="1.0" xmlns="http://www.w3.org/2000/svg"
 width="16.000000pt" height="16.000000pt" viewBox="0 0 16.000000 16.000000"
 preserveAspectRatio="xMidYMid meet">

<g transform="translate(0.000000,16.000000) scale(0.100000,-0.100000)"
fill="#000000" stroke="none">
<path d="M64 139 c-3 -6 -2 -14 3 -18 6 -3 16 -17 22 -30 8 -14 16 -20 22 -14
6 6 3 21 -8 41 -19 34 -28 39 -39 21z"/>
<path d="M27 75 c-20 -41 -20 -45 -7 -45 5 0 19 18 30 40 15 30 17 40 7 40 -7
0 -21 -16 -30 -35z"/>
<path d="M95 62 c-39 -5 -58 -22 -25 -22 14 0 35 -3 48 -6 16 -5 22 -2 22 9 0
20 -8 24 -45 19z"/>
</g>
</svg>
